# AST/ASF file generated using VICON BodyLanguage
# -----------------------------------------------
:version 1.10
:name VICON
:units
  mass 1.0
  length 0.45
  angle deg
:documentation
   .ast/.asf automatically generated from VICON data using
   VICON BodyBuilder and BodyLanguage model FoxedUp or BRILLIANT.MOD
:root
   order TX TY TZ RX RY RZ
   axis XYZ
   position 0 0 0  
   orientation 0 -0 0 
:bonedata
  begin
     id 1 
     name lhipjoint
     direction 0.500677 -0.737119 0.453848 
     length 2.34727 
     axis 0 -0 0  XYZ
  end
  begin
     id 2 
     name lfemur
     direction 0.34202 -0.939693 0  
     length 7.53653  
     axis 0 -0 20  XYZ
    dof rx ry rz
    limits (-160.0 20.0)
           (-70.0 70.0)
           (-60.0 70.0)
  end
  begin
     id 3 
     name ltibia
     direction 0.34202 -0.939693 0   
     length 6.85572   
     axis 0 -0 20   XYZ
    dof rx
    limits (-10.0 170.0)
  end
  begin
     id 4 
     name lfoot
     direction 0.155313 -0.426718 0.890949   
     length 2.18324   
     axis -90 -1.13533e-015 20   XYZ
    dof rx rz
    limits (-45.0 90.0)
           (-70.0 20.0)
  end
  begin
     id 5 
     name ltoes
     direction 1.53474e-011 -4.21647e-011 1   
     length 1.06748   
     axis -90 -1.13533e-015 20   XYZ
    dof rx
    limits (-90.0 20.0)
  end
  begin
     id 6 
     name rhipjoint
     direction -0.632471 -0.659587 0.406111   
     length 2.62319  
     axis 0 -0 0  XYZ 
  end
  begin
     id 7 
     name rfemur
     direction -0.34202 -0.939693 0   
     length 7.21735   
     axis 0 -0 -20   XYZ
    dof rx ry rz
    limits (-160.0 20.0)
           (-70.0 70.0)
           (-70.0 60.0)
  end
  begin
     id 8 
     name rtibia
     direction -0.34202 -0.939693 0   
     length 7.02558   
     axis 0 -0 -20   XYZ
    dof rx
    limits (-10.0 170.0)
 end
 begin
     id 9 
     name rfoot
     direction -0.16057 -0.441164 0.882945   
     length 2.10014  
     axis -90 1.13533e-015 -20   XYZ
    dof rx rz
    limits (-45.0 90.0)
           (-20.0 70.0)
  end
  begin
     id 10 
     name rtoes
     direction -1.53553e-011 -4.2192e-011 1   
     length 1.02554   
     axis -90 1.13533e-015 -20   XYZ
    dof rx
    limits (-90.0 20.0)
  end
  begin
     id 11 
     name lowerback
     direction 0.0401429 0.998861 -0.0258085   
     length 1.80848   
     axis 0 -0 0   XYZ
    dof rx ry rz
    limits (-20.0 45.0)
           (-30.0 30.0)
           (-30.0 30.0)
  end
  begin
     id 12 
     name upperback
     direction -0.0130978 0.999914 -0.000352645   
     length 1.8116   
     axis 0 -0 0   XYZ
    dof rx ry rz
    limits (-20.0 45.0)
           (-30.0 30.0)
           (-30.0 30.0)
  end
  begin
     id 13 
     name thorax
     direction -0.0300198 0.999453 0.0138573   
     length 1.81778   
     axis 0 -0 0   XYZ
    dof rx ry rz
    limits (-20.0 45.0)
           (-30.0 30.0)
           (-30.0 30.0)
  end
  begin
     id 14 
     name lowerneck
     direction -0.0401726 0.999191 -0.00173647   
     length 2.10594   
     axis 0 -0 0   XYZ
    dof rx ry rz
    limits (-20.0 45.0)
           (-30.0 30.0)
           (-30.0 30.0)
  end
  begin
     id 15 
     name upperneck
     direction 0.0119835 0.998501 0.0534085   
     length 2.07325   
     axis 0 -0 0   XYZ
    dof rx ry rz
    limits (-20.0 45.0)
           (-30.0 30.0)
           (-30.0 30.0)
  end
  begin
     id 16
     name head
     direction 0.00628309 0.999826 0.0175921  
     length 2.15096  
     axis 0 -0 0   XYZ
    dof rx ry rz
    limits (-20.0 45.0)
           (-30.0 30.0)
           (-30.0 30.0)
  end
  begin
     id 17 
     name lclavicle
     direction 0.895501 0.429681 -0.115981  
     length 4.18092  
     axis 0 -0 0   XYZ
    dof ry rz
    limits (-20.0 10.0)
           (0.0 20.0)
  end
  begin
     id 18 
     name lhumerus
     direction 1 -4.48961e-011 -3.38433e-028   
     length 5.77237   
     axis 180 -30 -90   XYZ
    dof rx ry rz
    limits (-60.0 90.0)
           (-90.0 90.0)
           (-90.0 90.0)
  end
  begin
     id 19
     name lradius
     direction 1 -4.4901e-011 1.11983e-026   
     length 2.91878   
     axis 180 -30 -90   XYZ
    dof rx
    limits (-10.0 170.0)
  end
  begin
     id 20
     name lwrist
     direction 1 -4.48934e-011 1.88176e-026   
     length 1.45939   
     axis -1.23311e-014 90 90   XYZ
    dof ry
    limits (-180.0 0.0)
 end
  begin
     id 21 
     name lhand
     direction 1 -4.4895e-011 3.76352e-026   
     length 1.06566   
     axis -2.40147e-014 90 90   XYZ
    dof rx rz
    limits (-90.0 90.0)
           (-45.0 45.0)
  end
  begin
     id 22 
     name lfingers
     direction 1 -4.49005e-011 7.52705e-026   
     length 0.859162   
     axis -4.80295e-014 90 90   XYZ
    dof rx
    limits (0.0 90.0)
  end
  begin
     id 23
     name lthumb
     direction 0.707107 -6.34885e-011 0.707107   
     length 1.23359   
     axis -90 45 -9.86935e-015   XYZ
    dof rx rz
    limits (-45.0 45.0)
           (-45.0 45.0)
  end
  begin
     id 24 
     name rclavicle
     direction -0.91006 0.40451 -0.0903492   
     length 4.23293  
     axis 0 -0 0   XYZ 
    dof ry rz
    limits (-10.0 20.0)
           (-20.0 0.0)
  end
  begin
     id 25 
     name rhumerus
     direction -1 -4.4897e-011 1.7415e-027  
     length 5.49854   
     axis 180 30 90   XYZ
    dof rx ry rz
    limits (-90.0 60.0)
           (-90.0 90.0)
           (-90.0 90.0)
  end
  begin
     id 26 
     name rradius
     direction -1 -4.48963e-011 1.21259e-026   
     length 3.1186   
     axis 180 30 90   XYZ
    dof rx
    limits (-10.0 170.0)
  end
  begin
     id 27 
     name rwrist
     direction -1 -4.48967e-011 1.88176e-026   
     length 1.5593   
     axis -1.23311e-014 -90 -90   XYZ
    dof ry
    limits (-180.0 0.0)
  end
  begin
     id 28
     name rhand
     direction -1 -4.4895e-011 3.76352e-026   
     length 0.71207   
     axis -2.40147e-014 -90 -90   XYZ
    dof rx rz
    limits (-90.0 90.0)
           (-45.0 45.0)
  end
  begin
     id 29
     name rfingers
     direction -1 -4.49005e-011 7.52705e-026   
     length 0.574089   
     axis -4.80295e-014 -90 -90   XYZ
    dof rx
    limits (0.0 90.0)
  end
  begin
     id 30
     name rthumb
     direction -0.707107 -6.34982e-011 0.707107   
     length 0.824281   
     axis -90 -45 9.86935e-015   XYZ
    dof rx rz
    limits (-45.0 45.0)
           (-45.0 45.0)
  end
:hierarchy
  begin
    root lhipjoint rhipjoint lowerback
    lhipjoint lfemur
    lfemur ltibia
    ltibia lfoot
    lfoot ltoes
    rhipjoint rfemur
    rfemur rtibia
    rtibia rfoot
    rfoot rtoes
    lowerback upperback
    upperback thorax
    thorax lowerneck lclavicle rclavicle
    lowerneck upperneck
    upperneck head
    lclavicle lhumerus
    lhumerus lradius
    lradius lwrist
    lwrist lhand lthumb
    lhand lfingers
    rclavicle rhumerus
    rhumerus rradius
    rradius rwrist
    rwrist rhand rthumb
    rhand rfingers
  end

#!OML:ASF C:\ViconDB\ViconDB\414\Spring2016\042216\male.ASF
:FULLY-SPECIFIED
:DEGREES
351
root -12.0196 17.2805 12.6186 -147.099 80.5632 -159.369
lowerback 3.42831 -4.96533 6.48026
upperback -0.678079 -6.30832 0.566171
thorax -3.25574 -3.24713 -2.5938
lowerneck -0.181684 1.16261 -8.45098
upperneck -23.6166 3.25986 6.7896
head -7.41085 2.08095 3.43742
rclavicle 5.18828e-014 3.97569e-015
rhumerus -54.339 6.27674 -92.9274
rradius 90.9035
rwrist -5.37594
rhand 4.46359 -24.1818
rfingers 7.12502
rthumb 29.8582 -51.7946
lclavicle 5.18828e-014 3.97569e-015
lhumerus -19.7585 -17.1565 96.4251
lradius 104.852
lwrist 13.2167
lhand -11.216 4.18483
lfingers 7.12502
lthumb 14.8124 33.6354
rfemur -43.9082 -9.4608 25.0215
rtibia 84.386
rfoot -11.936 -9.66644
rtoes -15.133
lfemur 12.7884 -9.68419 -19.1311
ltibia 0
lfoot -10.9451 6.84818
ltoes -34.8245
352
root -11.5252 17.3569 12.6403 -147.852 80.7646 -160.005
lowerback 2.76776 -5.08399 6.4485
upperback -0.658561 -6.52334 0.501052
thorax -2.88959 -3.34662 -2.68861
lowerneck -0.563635 1.29445 -8.42763
upperneck -23.0192 3.41167 6.7435
head -7.15906 2.14632 3.4046
rclavicle 3.02153e-014 -8.74653e-015
rhumerus -55.5386 5.74407 -92.6499
rradius 92.369
rwrist -5.55868
rhand 5.13555 -23.1773
rfingers 7.12502
rthumb 30.4993 -50.673
lclavicle 3.02153e-014 -8.74653e-015
lhumerus -19.5572 -18.2708 96.4239
lradius 105.993
lwrist 13.0649
lhand -9.7527 3.1328
lfingers 7.12502
lthumb 16.2218 32.4741
rfemur -45.2446 -9.15708 25.3326
rtibia 81.7476
rfoot -12.5627 -9.90352
rtoes -15.312
lfemur 14.111 -10.3119 -19.2319
ltibia 1.27222e-014
lfoot -8.13626 5.70157
ltoes -35.4272
353
root -11.0353 17.419 12.6715 -150.06 80.9621 -162.066
lowerback 2.20093 -5.24683 6.0345
upperback -0.650245 -6.80163 0.419627
thorax -2.55124 -3.47346 -2.58271
lowerneck -1.00511 1.41663 -8.41142
upperneck -22.2855 3.55166 6.74674
head -6.85401 2.20136 3.3909
rclavicle 8.83598e-014 -3.97569e-015
rhumerus -56.7755 5.54219 -92.459
rradius 93.8681
rwrist -6.58504
rhand 6.00229 -22.4428
rfingers 7.12502
rthumb 31.3255 -49.7817
lclavicle 8.83598e-014 -3.97569e-015
lhumerus -19.5832 -19.3867 96.4298
lradius 106.995
lwrist 12.3012
lhand -9.13321 2.63716
lfingers 7.12502
lthumb 16.8182 31.9288
rfemur -46.3152 -8.84186 25.3874
rtibia 78.7906
rfoot -13.4166 -10.0715
rtoes -15.2044
lfemur 15.468 -11.0615 -19.5027
ltibia 2.22639e-014
lfoot -4.67907 4.83541
ltoes -36.2202
354
root -10.5656 17.3945 12.7048 -153.148 81.3119 -165.07
lowerback 1.60043 -5.31472 5.18935
upperback -0.658264 -6.95785 0.403005
thorax -2.1377 -3.53337 -2.19297
lowerneck -1.62629 1.53365 -8.32022
upperneck -21.3283 3.65326 6.57479
head -6.44318 2.24474 3.31062
rclavicle 1.33484e-013 -2.22639e-014
rhumerus -57.8524 5.39217 -92.091
rradius 95.2092
rwrist -7.04542
rhand 6.61216 -21.8167
rfingers 7.12502
rthumb 31.9064 -49.0414
lclavicle 1.33484e-013 -2.22639e-014
lhumerus -19.7325 -20.6385 96.6813
lradius 107.96
lwrist 12.0817
lhand -9.6633 2.74913
lfingers 7.12502
lthumb 16.3079 32.0834
rfemur -47.6167 -8.33836 25.1729
rtibia 75.7985
rfoot -13.864 -10.2051
rtoes -14.7792
lfemur 16.8461 -11.728 -19.9513
ltibia 7.95139e-014
lfoot -1.10763 3.98801
ltoes -36.5021
355
root -10.0764 17.4546 12.7319 -152.787 81.5307 -164.626
lowerback 1.15858 -5.368 4.92511
upperback -0.699641 -7.05716 0.545931
thorax -1.89082 -3.57477 -1.94289
lowerneck -2.31592 1.66692 -8.35956
upperneck -20.301 3.7844 6.4543
head -6.00867 2.30897 3.2714
rclavicle -4.88513e-014 1.27222e-014
rhumerus -58.8074 5.62348 -91.8029
rradius 96.1853
rwrist -6.56084
rhand 6.81166 -20.806
rfingers 7.12502
rthumb 32.0964 -47.9926
lclavicle -4.88513e-014 1.27222e-014
lhumerus -20.0602 -21.5032 96.9335
lradius 108.461
lwrist 11.5312
lhand -9.74343 2.31438
lfingers 7.12502
lthumb 16.2307 31.655
rfemur -48.0461 -7.3845 25.4081
rtibia 71.8005
rfoot -14.0754 -10.7132
rtoes -14.8375
lfemur 18.2225 -12.2677 -19.8231
ltibia -9.54166e-015
lfoot 2.36259 3.23917
ltoes -34.79
356
root -9.57159 17.5261 12.7499 -151.838 81.8038 -163.568
lowerback 0.595764 -5.34585 4.79138
upperback -0.676736 -7.06167 0.64474
thorax -1.52421 -3.56781 -1.83033
lowerneck -3.02149 1.79144 -8.08299
upperneck -19.2349 3.88208 6.13861
head -5.55302 2.34637 3.12112
rclavicle -1.98785e-015 -1.07344e-014
rhumerus -59.437 5.81098 -91.5494
rradius 97.127
rwrist -6.28489
rhand 6.92846 -20.7729
rfingers 7.12502
rthumb 32.2076 -47.937
lclavicle -1.98785e-015 -1.07344e-014
lhumerus -20.3502 -22.3376 97.3159
lradius 108.584
lwrist 10.9331
lhand -10.2309 2.02715
lfingers 7.12502
lthumb 15.7613 31.4054
rfemur -47.8734 -6.19386 25.4889
rtibia 67.2675
rfoot -14.1518 -11.4215
rtoes -14.4469
lfemur 19.7613 -12.6957 -19.8068
ltibia -4.13472e-014
lfoot 5.31892 2.44424
ltoes -31.1004
357
root -9.06332 17.598 12.7537 -150.986 82.2266 -162.746
lowerback -0.0352809 -5.24129 4.64376
upperback -0.716952 -6.95619 0.788871
thorax -1.17029 -3.50675 -1.67089
lowerneck -3.69449 1.86466 -8.00404
upperneck -18.228 3.92279 5.89976
head -5.12631 2.36521 3.03514
rclavicle 9.14409e-015 -1.07344e-014
rhumerus -59.903 6.15183 -91.1421
rradius 97.9771
rwrist -5.84976
rhand 7.36882 -20.7838
rfingers 7.12502
rthumb 32.6267 -47.8621
lclavicle 9.14409e-015 -1.07344e-014
lhumerus -20.7503 -22.8961 97.9626
lradius 108.505
lwrist 9.88084
lhand -10.8469 2.03336
lfingers 7.12502
lthumb 15.168 31.4574
rfemur -47.4698 -5.06418 25.3676
rtibia 62.1306
rfoot -13.7717 -11.9894
rtoes -14.6414
lfemur 21.2402 -12.9902 -19.9789
ltibia 0
lfoot 8.41153 1.72881
ltoes -23.599
358
root -8.55166 17.6653 12.7524 -149.547 82.5216 -161.45
lowerback -0.999453 -5.12765 4.81181
upperback -0.622674 -6.86331 0.814158
thorax -0.54578 -3.44723 -1.84178
lowerneck -4.30881 1.94425 -7.76478
upperneck -17.5411 4.00894 5.71282
head -4.81168 2.40108 2.93968
rclavicle 6.51517e-014 -1.21259e-014
rhumerus -59.9436 6.42826 -91.009
rradius 98.6826
rwrist -5.34522
rhand 7.51588 -20.9885
rfingers 7.12502
rthumb 32.7666 -48.0377
lclavicle 6.51517e-014 -1.21259e-014
lhumerus -21.1859 -23.3364 98.4526
lradius 108.273
lwrist 9.24295
lhand -11.0521 1.93636
lfingers 7.12502
lthumb 14.9703 31.3753
rfemur -46.8137 -3.96533 25.2561
rtibia 56.6743
rfoot -13.6222 -12.1499
rtoes -14.5473
lfemur 22.6119 -13.3572 -20.0679
ltibia 5.40694e-014
lfoot 11.9829 1.10797
ltoes -13.4465
359
root -8.03476 17.7215 12.7482 -146.013 82.5754 -157.985
lowerback -1.7506 -5.05342 5.20144
upperback -0.645054 -6.80993 1.08405
thorax -0.158817 -3.41043 -1.85329
lowerneck -4.62701 2.08062 -7.74241
upperneck -17.0521 4.14784 5.45876
head -4.61594 2.47485 2.85538
rclavicle -1.24091e-013 2.127e-014
rhumerus -59.9632 7.03318 -90.7533
rradius 99.2358
rwrist -4.53249
rhand 7.8336 -21.102
rfingers 7.12502
rthumb 33.0688 -48.0877
lclavicle -1.24091e-013 2.127e-014
lhumerus -22.0086 -23.5087 99.2065
lradius 107.926
lwrist 8.61367
lhand -11.4264 1.86857
lfingers 7.12502
lthumb 14.6097 31.334
rfemur -45.7007 -2.97671 25.4716
rtibia 51.0181
rfoot -13.5398 -12.3035
rtoes -15.0595
lfemur 18.0711 -13.7532 -19.8306
ltibia 12.8085
lfoot 7.29536 2.09647
ltoes -11.9237
360
root -7.52676 17.7542 12.7398 -141.782 82.642 -153.981
lowerback -2.63826 -4.90657 5.82389
upperback -0.670065 -6.68291 1.21888
thorax 0.26429 -3.33478 -2.13885
lowerneck -4.81305 2.18657 -7.60194
upperneck -16.7871 4.26894 5.31854
head -4.50785 2.53024 2.78697
rclavicle -2.14687e-014 -9.34288e-015
rhumerus -59.6787 7.49173 -90.7364
rradius 99.5199
rwrist -3.75079
rhand 8.86735 -21.1248
rfingers 7.12502
rthumb 34.0513 -47.8972
lclavicle -2.14687e-014 -9.34288e-015
lhumerus -22.9406 -23.3331 99.9653
lradius 107.505
lwrist 8.00337
lhand -11.0984 2.01683
lfingers 7.12502
lthumb 14.9257 31.4591
rfemur -44.5368 -1.84923 25.6015
rtibia 45.3604
rfoot -12.916 -12.2801
rtoes -15.8997
lfemur 15.8998 -13.6089 -19.3112
ltibia 19.6712
lfoot 4.07905 2.6473
ltoes -16.6354
361
root -7.02351 17.7692 12.7286 -139.051 82.755 -151.196
lowerback -3.14886 -4.84537 6.32149
upperback -0.662137 -6.65162 1.28446
thorax 0.5109 -3.30983 -2.3911
lowerneck -4.87808 2.3218 -7.44727
upperneck -16.6586 4.41943 5.11934
head -4.46202 2.6016 2.69533
rclavicle -4.06763e-014 1.19271e-014
rhumerus -59.1599 8.06297 -90.7774
rradius 99.5711
rwrist -2.80092
rhand 9.45263 -20.924
rfingers 7.12502
rthumb 34.607 -47.5709
lclavicle -4.06763e-014 1.19271e-014
lhumerus -24.1106 -22.7819 100.644
lradius 107.028
lwrist 7.9205
lhand -10.4701 2.10945
lfingers 7.12502
lthumb 15.5309 31.5057
rfemur -42.8617 -0.618577 25.3626
rtibia 39.9221
rfoot -11.9765 -12.2847
rtoes -16.6495
lfemur 14.4245 -13.362 -19.0715
ltibia 25.3813
lfoot 1.65885 2.95475
ltoes -19.7892
